<?xml version="1.0" encoding="utf-8"?>
<!-- Generator: Adobe Illustrator 18.0.0, SVG Export Plug-In . SVG Version: 6.00 Build 0)  -->
<!DOCTYPE svg PUBLIC "-//W3C//DTD SVG 1.1//EN" "http://www.w3.org/Graphics/SVG/1.1/DTD/svg11.dtd">
<svg version="1.1" id="Laag_1" xmlns="http://www.w3.org/2000/svg" xmlns:xlink="http://www.w3.org/1999/xlink" x="0px" y="0px"
	 viewBox="0 0 198.4 62" enable-background="new 0 0 198.4 62" xml:space="preserve">
<g>
	<defs>
		<rect id="SVGID_1_" x="0.5" y="5.6" width="197.5" height="48.6"/>
	</defs>
	<clipPath id="SVGID_2_">
		<use xlink:href="#SVGID_1_"  overflow="visible"/>
	</clipPath>
	<path clip-path="url(#SVGID_2_)" fill="#ED1C24" d="M54.1,46.2L53.2,47c-0.2-0.3-0.5-0.4-0.6-0.6c-0.2-0.1-0.5-0.2-0.8-0.2
		c-0.4,0-0.7,0.1-1,0.3c-0.2,0.2-0.4,0.4-0.4,0.7c0,0.3,0.1,0.5,0.3,0.7c0.2,0.2,0.6,0.4,1.1,0.6c0.5,0.2,0.9,0.5,1.2,0.7
		c0.3,0.2,0.5,0.4,0.7,0.7c0.2,0.2,0.3,0.5,0.4,0.8c0.1,0.3,0.1,0.6,0.1,0.9c0,0.7-0.2,1.3-0.7,1.8c-0.5,0.5-1.1,0.7-1.8,0.7
		c-0.7,0-1.3-0.2-1.8-0.6c-0.5-0.4-0.9-1-1.2-1.7l1.1-0.3c0.4,0.9,1,1.4,1.9,1.4c0.4,0,0.7-0.1,1-0.4c0.3-0.2,0.4-0.6,0.4-0.9
		c0-0.2-0.1-0.5-0.2-0.7c-0.1-0.2-0.3-0.4-0.5-0.6c-0.2-0.2-0.5-0.3-1-0.5c-0.5-0.2-0.8-0.4-1.1-0.5c-0.2-0.2-0.5-0.4-0.6-0.6
		c-0.2-0.2-0.3-0.4-0.4-0.7c-0.1-0.2-0.1-0.5-0.1-0.7c0-0.6,0.2-1.1,0.7-1.5c0.5-0.4,1-0.6,1.7-0.6c0.4,0,0.9,0.1,1.4,0.3
		C53.5,45.5,53.8,45.8,54.1,46.2"/>
	<path clip-path="url(#SVGID_2_)" fill="#ED1C24" d="M59.7,46.3v2.9c0.8,0,1.5-0.1,1.9-0.4c0.4-0.2,0.6-0.6,0.6-1.1
		c0-0.4-0.2-0.7-0.5-1C61.4,46.4,60.7,46.3,59.7,46.3 M58.6,45.3h1.6c0.9,0,1.7,0.2,2.2,0.7c0.6,0.4,0.9,1,0.9,1.8
		c0,0.7-0.3,1.3-0.9,1.8c-0.6,0.5-1.5,0.7-2.7,0.7v3.5h-1.1V45.3z"/>
</g>
<polygon fill="#ED1C24" points="67.4,45.3 71.9,45.3 71.9,46.4 68.5,46.4 68.5,48.5 71.9,48.5 71.9,49.7 68.5,49.7 68.5,52.6 
	71.9,52.6 71.9,53.7 67.4,53.7 "/>
<g>
	<defs>
		<rect id="SVGID_3_" x="0.5" y="5.6" width="197.5" height="48.6"/>
	</defs>
	<clipPath id="SVGID_4_">
		<use xlink:href="#SVGID_3_"  overflow="visible"/>
	</clipPath>
	<path clip-path="url(#SVGID_4_)" fill="#ED1C24" d="M82.5,45.6v1.3c-0.9-0.4-1.7-0.7-2.4-0.7c-0.9,0-1.7,0.3-2.4,0.9
		c-0.6,0.6-1,1.4-1,2.3c0,0.9,0.3,1.7,1,2.3c0.7,0.6,1.5,0.9,2.5,0.9c0.7,0,1.5-0.2,2.3-0.7v1.3c-0.7,0.4-1.5,0.6-2.4,0.6
		c-1.3,0-2.3-0.4-3.2-1.3c-0.9-0.9-1.3-1.9-1.3-3.2c0-1.2,0.4-2.3,1.3-3.1c0.9-0.9,1.9-1.3,3.2-1.3C80.8,45,81.6,45.2,82.5,45.6"/>
</g>
<rect x="86.4" y="45.3" fill="#ED1C24" width="1.1" height="8.4"/>
<path fill="#ED1C24" d="M94.9,47.6l-1.3,3h2.6L94.9,47.6z M94.9,45l3.9,8.7h-1.2l-0.9-2.2h-3.5l-0.9,2.2h-1.2L94.9,45z"/>
<polygon fill="#ED1C24" points="102.6,45.3 103.7,45.3 103.7,52.6 106.4,52.6 106.4,53.7 102.6,53.7 "/>
<polygon fill="#ED1C24" points="114.6,45.3 119.1,45.3 119.1,46.4 115.7,46.4 115.7,48.5 119.1,48.5 119.1,49.7 115.7,49.7 
	115.7,52.6 119.1,52.6 119.1,53.7 114.6,53.7 "/>
<g>
	<defs>
		<rect id="SVGID_5_" x="0.5" y="5.6" width="197.5" height="48.6"/>
	</defs>
	<clipPath id="SVGID_6_">
		<use xlink:href="#SVGID_5_"  overflow="visible"/>
	</clipPath>
	<path clip-path="url(#SVGID_6_)" fill="#ED1C24" d="M128.6,52.5l-1.8-2h1.5l1.3,1.4c0.7-0.7,1-1.5,1-2.4c0-0.9-0.3-1.7-1-2.3
		c-0.6-0.6-1.4-0.9-2.4-0.9c-0.9,0-1.7,0.3-2.3,1c-0.6,0.6-1,1.4-1,2.3c0,0.9,0.3,1.7,1,2.3c0.7,0.6,1.4,1,2.4,1
		C127.6,52.8,128.1,52.7,128.6,52.5 M130.3,52.8l1.3,1.4h-1.5l-0.7-0.8c-0.8,0.4-1.5,0.6-2.2,0.6c-1.3,0-2.3-0.4-3.2-1.3
		c-0.9-0.9-1.3-2-1.3-3.2c0-1.2,0.4-2.3,1.3-3.1c0.9-0.9,2-1.3,3.2-1.3c1.2,0,2.3,0.4,3.2,1.3c0.9,0.9,1.3,1.9,1.3,3.1
		C131.7,50.8,131.2,51.9,130.3,52.8"/>
	<path clip-path="url(#SVGID_6_)" fill="#ED1C24" d="M135.8,45.3h1.1v5.2c0,0.8,0.2,1.4,0.5,1.8c0.4,0.4,0.9,0.6,1.5,0.6
		c0.6,0,1.2-0.2,1.5-0.6c0.4-0.4,0.5-0.9,0.5-1.6v-5.4h1.1v5.3c0,1-0.3,1.9-0.9,2.5c-0.6,0.6-1.3,0.9-2.3,0.9c-1,0-1.7-0.3-2.3-0.9
		c-0.6-0.6-0.9-1.5-0.9-2.8V45.3z"/>
</g>
<rect x="146.3" y="45.3" fill="#ED1C24" width="1.1" height="8.4"/>
<g>
	<defs>
		<rect id="SVGID_7_" x="0.5" y="5.6" width="197.5" height="48.6"/>
	</defs>
	<clipPath id="SVGID_8_">
		<use xlink:href="#SVGID_7_"  overflow="visible"/>
	</clipPath>
	<path clip-path="url(#SVGID_8_)" fill="#ED1C24" d="M153.2,46.3v2.9c0.8,0,1.5-0.1,1.9-0.4c0.4-0.2,0.6-0.6,0.6-1.1
		c0-0.4-0.2-0.7-0.5-1C154.9,46.4,154.2,46.3,153.2,46.3 M152.1,45.3h1.6c0.9,0,1.7,0.2,2.2,0.7c0.6,0.4,0.9,1,0.9,1.8
		c0,0.7-0.3,1.3-0.9,1.8c-0.6,0.5-1.5,0.7-2.7,0.7v3.5h-1.1V45.3z"/>
</g>
<polygon fill="#ED1C24" points="165.2,51.2 162.6,44.9 160.4,53.7 161.5,53.7 162.9,48.3 165.2,54 167.5,48.3 168.9,53.7 170,53.7 
	167.7,44.9 "/>
<polygon fill="#ED1C24" points="173.6,45.3 178.2,45.3 178.2,46.4 174.7,46.4 174.7,48.5 178.2,48.5 178.2,49.7 174.7,49.7 
	174.7,52.6 178.2,52.6 178.2,53.7 173.6,53.7 "/>
<polygon fill="#ED1C24" points="182,53.7 183.2,53.7 183.2,47.7 189.2,54.1 189.2,45.3 188.1,45.3 188.1,51.3 182,44.9 "/>
<polygon fill="#ED1C24" points="193,45.3 193,46.4 194.9,46.4 194.9,53.7 196,53.7 196,46.4 198,46.4 198,45.3 "/>
<polygon fill="#FFFFFF" points="28.8,12.7 35.3,19.2 34.4,37.2 31.7,40.1 12.3,39.7 10.1,37.4 10.7,17.4 12.3,15.7 "/>
<polygon fill="#262D66" points="11.3,38.9 18.5,38.9 18.5,30.8 25.6,30.8 25.6,38.9 32.8,38.9 22.1,50.1 "/>
<polygon fill="#262D66" points="22.1,5.6 11.3,16.7 18.5,16.7 18.5,24.8 25.7,24.8 25.7,16.7 32.8,16.7 "/>
<polygon fill="#ED1C24" points="32.8,16.7 32.8,38.9 43.7,27.8 "/>
<polygon fill="#ED1C24" points="0.5,27.8 11.3,38.9 11.3,16.7 "/>
<polygon fill="#262D66" points="190.9,16.7 190.9,28 183.3,16.7 176.3,16.7 176.3,38.9 183.3,38.9 183.3,27.7 190.9,38.9 198,38.9 
	198,16.7 "/>
<path fill="#262D66" d="M136.7,30.9l2.2-7.2v-6.9h-3.7L127,38.9h7.3l0.9-2.9h3.7v-5.2H136.7z M138.8,23.7L138.8,23.7l2.2,7.2h-2.2
	V36h3.6l0.8,2.9h7.3l-8.1-22.2h-3.7V23.7z"/>
<path fill="#262D66" d="M160.6,30.9l2.2-7.2v-6.9h-3.7L151,38.9h7.3l0.9-2.9h3.7v-5.2H160.6z M162.8,23.7L162.8,23.7l2.2,7.2h-2.2
	V36h3.6l0.9,2.9h7.3l-8.1-22.2h-3.7V23.7z"/>
<polygon fill="#262D66" points="103.3,38.9 110.6,38.9 110.6,30.9 117.5,30.9 117.5,38.9 124.9,38.9 124.9,16.7 117.5,16.7 
	117.5,24.8 110.6,24.8 110.6,16.7 103.3,16.7 "/>
<polygon fill="#262D66" points="74.8,38.9 93.6,38.9 93.6,32.9 82.1,32.9 82.1,30.9 91.5,30.9 91.5,24.8 82.1,24.8 82.1,22.7 
	93.2,22.7 93.2,16.7 74.8,16.7 "/>
<g>
	<defs>
		<rect id="SVGID_9_" x="0.5" y="5.6" width="197.5" height="48.6"/>
	</defs>
	<clipPath id="SVGID_10_">
		<use xlink:href="#SVGID_9_"  overflow="visible"/>
	</clipPath>
	<path clip-path="url(#SVGID_10_)" fill="#262D66" d="M57.1,33.3V22.4h2.1c0.5,0,0.9,0,1.4,0.1v-5.7c-0.6,0-1.2,0-1.9,0h-8.9v22.2
		h7.6c1.2,0,2.3,0,3.3,0v-5.7c-0.4,0.1-0.9,0.1-1.4,0.1H57.1z M60.5,22.5c2.5,0.4,3.4,2,3.4,5.4c0,3.5-0.9,5-3.4,5.4v5.7
		c2-0.1,3.7-0.3,5-0.9c3.9-1.7,5.9-5.1,5.9-10.2c0-4.8-1.6-8-4.8-9.8c-1.7-0.9-3.6-1.2-6.1-1.2V22.5z"/>
</g>
</svg>
