<?xml version="1.0" encoding="utf-8"?>
<!-- Generator: Adobe Illustrator 19.1.1, SVG Export Plug-In . SVG Version: 6.00 Build 0)  -->
<svg version="1.1" id="Laag_1" xmlns="http://www.w3.org/2000/svg" xmlns:xlink="http://www.w3.org/1999/xlink" x="0px" y="0px"
	 viewBox="0 0 45 44.9" style="enable-background:new 0 0 45 44.9;" xml:space="preserve">
<style type="text/css">
	.st0{clip-path:url(#SVGID_2_);fill:#E30613;}
	.st1{fill:#E30613;}
	.st2{clip-path:url(#SVGID_4_);fill:#E30613;}
	.st3{clip-path:url(#SVGID_6_);fill:#E30613;}
	.st4{clip-path:url(#SVGID_8_);fill:#E30613;}
	.st5{fill:#FFFFFF;}
	.st6{fill:#282B60;}
	.st7{clip-path:url(#SVGID_10_);fill:#282B60;}
</style>
<g>
	<defs>
		<rect id="SVGID_1_" x="0.9" width="197.5" height="48.6"/>
	</defs>
	<clipPath id="SVGID_2_">
		<use xlink:href="#SVGID_1_"  style="overflow:visible;"/>
	</clipPath>
	<path class="st0" d="M54.6,40.6l-0.9,0.7c-0.2-0.3-0.5-0.4-0.6-0.6c-0.2-0.1-0.5-0.2-0.8-0.2c-0.4,0-0.7,0.1-1,0.3
		c-0.2,0.2-0.4,0.4-0.4,0.7c0,0.3,0.1,0.5,0.3,0.7c0.2,0.2,0.6,0.4,1.1,0.6c0.5,0.2,0.9,0.5,1.2,0.7c0.3,0.2,0.5,0.4,0.7,0.7
		c0.2,0.2,0.3,0.5,0.4,0.8c0.1,0.3,0.1,0.6,0.1,0.9c0,0.7-0.2,1.3-0.7,1.8c-0.5,0.5-1.1,0.7-1.8,0.7c-0.7,0-1.3-0.2-1.8-0.6
		c-0.5-0.4-0.9-1-1.2-1.7l1.1-0.3c0.4,0.9,1,1.4,1.9,1.4c0.4,0,0.7-0.1,1-0.4c0.3-0.2,0.4-0.6,0.4-0.9c0-0.2-0.1-0.5-0.2-0.7
		c-0.1-0.2-0.3-0.4-0.5-0.6c-0.2-0.2-0.5-0.3-1-0.5c-0.5-0.2-0.8-0.4-1.1-0.5c-0.2-0.2-0.5-0.4-0.6-0.6c-0.2-0.2-0.3-0.4-0.4-0.7
		c-0.1-0.2-0.1-0.5-0.1-0.7c0-0.6,0.2-1.1,0.7-1.5c0.5-0.4,1-0.6,1.7-0.6c0.4,0,0.9,0.1,1.4,0.3C53.9,39.9,54.2,40.2,54.6,40.6"/>
	<path class="st0" d="M60.1,40.7v2.9c0.8,0,1.5-0.1,1.9-0.4c0.4-0.2,0.6-0.6,0.6-1.1c0-0.4-0.2-0.7-0.5-1
		C61.8,40.8,61.1,40.7,60.1,40.7 M59,39.6h1.6c0.9,0,1.7,0.2,2.2,0.7c0.6,0.4,0.9,1,0.9,1.8c0,0.7-0.3,1.3-0.9,1.8
		c-0.6,0.5-1.5,0.7-2.7,0.7v3.5H59V39.6z"/>
</g>
<polygon class="st1" points="66.8,41.6 71.4,41.6 71.4,42.8 67.9,42.8 67.9,44.9 71.4,44.9 71.4,46 67.9,46 67.9,48.9 71.4,48.9 
	71.4,50.1 66.8,50.1 "/>
<g>
	<defs>
		<rect id="SVGID_3_" x="0.9" width="197.5" height="48.6"/>
	</defs>
	<clipPath id="SVGID_4_">
		<use xlink:href="#SVGID_3_"  style="overflow:visible;"/>
	</clipPath>
	<path class="st2" d="M82.9,39.9v1.3c-0.9-0.4-1.7-0.7-2.4-0.7c-0.9,0-1.7,0.3-2.4,0.9c-0.6,0.6-1,1.4-1,2.3c0,0.9,0.3,1.7,1,2.3
		c0.7,0.6,1.5,0.9,2.5,0.9c0.7,0,1.5-0.2,2.3-0.7v1.3c-0.7,0.4-1.5,0.6-2.4,0.6c-1.3,0-2.3-0.4-3.2-1.3c-0.9-0.9-1.3-1.9-1.3-3.2
		c0-1.2,0.4-2.3,1.3-3.1c0.9-0.9,1.9-1.3,3.2-1.3C81.2,39.4,82,39.6,82.9,39.9"/>
</g>
<rect x="85.8" y="41.6" class="st1" width="1.1" height="8.4"/>
<path class="st1" d="M94.4,43.9l-1.3,3h2.6L94.4,43.9z M94.4,41.3l3.9,8.7h-1.2l-0.9-2.2h-3.5l-0.9,2.2h-1.2L94.4,41.3z"/>
<polygon class="st1" points="102,41.6 103.1,41.6 103.1,48.9 105.8,48.9 105.8,50.1 102,50.1 "/>
<polygon class="st1" points="114,41.6 118.6,41.6 118.6,42.8 115.1,42.8 115.1,44.9 118.6,44.9 118.6,46 115.1,46 115.1,48.9 
	118.6,48.9 118.6,50.1 114,50.1 "/>
<g>
	<defs>
		<rect id="SVGID_5_" x="0.9" width="197.5" height="48.6"/>
	</defs>
	<clipPath id="SVGID_6_">
		<use xlink:href="#SVGID_5_"  style="overflow:visible;"/>
	</clipPath>
	<path class="st3" d="M129,46.9l-1.8-2h1.5l1.3,1.4c0.7-0.7,1-1.5,1-2.4c0-0.9-0.3-1.7-1-2.3c-0.6-0.6-1.4-0.9-2.4-0.9
		c-0.9,0-1.7,0.3-2.3,1c-0.6,0.6-1,1.4-1,2.3c0,0.9,0.3,1.7,1,2.3c0.7,0.6,1.4,1,2.4,1C128.1,47.1,128.5,47,129,46.9 M130.7,47.1
		l1.3,1.4h-1.5l-0.7-0.8c-0.8,0.4-1.5,0.6-2.2,0.6c-1.3,0-2.3-0.4-3.2-1.3c-0.9-0.9-1.3-2-1.3-3.2c0-1.2,0.4-2.3,1.3-3.1
		c0.9-0.9,2-1.3,3.2-1.3c1.2,0,2.3,0.4,3.2,1.3c0.9,0.9,1.3,1.9,1.3,3.1C132.1,45.1,131.7,46.2,130.7,47.1"/>
	<path class="st3" d="M136.2,39.7h1.1v5.2c0,0.8,0.2,1.4,0.5,1.8c0.4,0.4,0.9,0.6,1.5,0.6c0.6,0,1.2-0.2,1.5-0.6
		c0.4-0.4,0.5-0.9,0.5-1.6v-5.4h1.1V45c0,1-0.3,1.9-0.9,2.5c-0.6,0.6-1.3,0.9-2.3,0.9c-1,0-1.7-0.3-2.3-0.9
		c-0.6-0.6-0.9-1.5-0.9-2.8V39.7z"/>
</g>
<rect x="145.7" y="41.6" class="st1" width="1.1" height="8.4"/>
<g>
	<defs>
		<rect id="SVGID_7_" x="0.9" width="197.5" height="48.6"/>
	</defs>
	<clipPath id="SVGID_8_">
		<use xlink:href="#SVGID_7_"  style="overflow:visible;"/>
	</clipPath>
	<path class="st4" d="M153.6,40.7v2.9c0.8,0,1.5-0.1,1.9-0.4c0.4-0.2,0.6-0.6,0.6-1.1c0-0.4-0.2-0.7-0.5-1
		C155.3,40.8,154.6,40.7,153.6,40.7 M152.5,39.6h1.6c0.9,0,1.7,0.2,2.2,0.7c0.6,0.4,0.9,1,0.9,1.8c0,0.7-0.3,1.3-0.9,1.8
		c-0.6,0.5-1.5,0.7-2.7,0.7v3.5h-1.1V39.6z"/>
</g>
<polygon class="st1" points="164.6,47.6 162.1,41.3 159.8,50.1 160.9,50.1 162.3,44.7 164.6,50.4 166.9,44.7 168.3,50.1 169.4,50.1 
	167.2,41.3 "/>
<polygon class="st1" points="173.1,41.6 177.6,41.6 177.6,42.8 174.2,42.8 174.2,44.9 177.6,44.9 177.6,46 174.2,46 174.2,48.9 
	177.6,48.9 177.6,50.1 173.1,50.1 "/>
<polygon class="st1" points="181.5,50.1 182.6,50.1 182.6,44.1 188.6,50.5 188.6,41.6 187.5,41.6 187.5,47.7 181.5,41.3 "/>
<polygon class="st1" points="192.4,41.6 192.4,42.8 194.3,42.8 194.3,50.1 195.4,50.1 195.4,42.8 197.4,42.8 197.4,41.6 "/>
<polygon class="st5" points="29.2,7.1 35.8,13.6 34.9,31.6 32.1,34.4 12.7,34.1 10.6,31.8 11.1,11.7 12.8,10.1 "/>
<polygon class="st6" points="11.7,33.3 18.9,33.3 18.9,25.2 26,25.2 26,33.3 33.3,33.3 22.5,44.4 "/>
<polygon class="st6" points="22.5,0 11.7,11.1 18.9,11.1 18.9,19.2 26.1,19.2 26.1,11.1 33.3,11.1 "/>
<polygon class="st1" points="33.3,11.1 33.3,33.3 44.1,22.2 "/>
<polygon class="st1" points="0.9,22.2 11.7,33.3 11.7,11.1 "/>
<polygon class="st6" points="190.3,13.1 190.3,24.4 182.7,13.1 175.7,13.1 175.7,35.3 182.7,35.3 182.7,24 190.3,35.3 197.4,35.3 
	197.4,13.1 "/>
<path class="st6" d="M136.1,27.2l2.2-7.2v-6.9h-3.7l-8.1,22.2h7.3l0.9-2.9h3.7v-5.2H136.1z M138.2,20L138.2,20l2.2,7.2h-2.2v5.2h3.6
	l0.8,2.9h7.3L142,13.1h-3.7V20z"/>
<path class="st6" d="M160,27.2l2.2-7.2v-6.9h-3.7l-8.1,22.2h7.3l0.9-2.9h3.7v-5.2H160z M162.2,20L162.2,20l2.2,7.2h-2.2v5.2h3.6
	l0.9,2.9h7.3l-8.1-22.2h-3.7V20z"/>
<polygon class="st6" points="102.7,35.3 110,35.3 110,27.2 116.9,27.2 116.9,35.3 124.3,35.3 124.3,13.1 116.9,13.1 116.9,21.1 
	110,21.1 110,13.1 102.7,13.1 "/>
<polygon class="st6" points="74.2,35.3 93,35.3 93,29.2 81.6,29.2 81.6,27.2 90.9,27.2 90.9,21.1 81.6,21.1 81.6,19.1 92.6,19.1 
	92.6,13.1 74.2,13.1 "/>
<g>
	<defs>
		<rect id="SVGID_9_" x="0.9" width="197.5" height="48.6"/>
	</defs>
	<clipPath id="SVGID_10_">
		<use xlink:href="#SVGID_9_"  style="overflow:visible;"/>
	</clipPath>
	<path class="st7" d="M57.5,27.7V16.7h2.1c0.5,0,0.9,0,1.4,0.1v-5.7c-0.6,0-1.2,0-1.9,0h-8.9v22.2h7.6c1.2,0,2.3,0,3.3,0v-5.7
		c-0.4,0.1-0.9,0.1-1.4,0.1H57.5z M60.9,16.8c2.5,0.4,3.4,2,3.4,5.4c0,3.5-0.9,5-3.4,5.4v5.7c2-0.1,3.7-0.3,5-0.9
		c3.9-1.7,5.9-5.1,5.9-10.2c0-4.8-1.6-8-4.8-9.8c-1.7-0.9-3.6-1.2-6.1-1.2V16.8z"/>
</g>
</svg>
